<svg xmlns="http://www.w3.org/2000/svg" viewBox="0 0 24 24" width="24" height="24" fill="#47b88e">
  <path d="M22.23 0H1.77C0.792 0 0 .774 0 1.729v20.542C0 23.226.792 24 1.77 24h20.46C23.208 24 24 23.226 24 22.271V1.729C24 .774 23.208 0 22.23 0zM7.119 20.452H3.557V9h3.562v11.452zM5.338 7.433c-1.14 0-2.064-.929-2.064-2.072 0-1.142.924-2.071 2.064-2.071 1.142 0 2.066.929 2.066 2.071 0 1.143-.924 2.072-2.066 2.072zm14.002 13.019h-3.56v-5.605c0-1.337-.027-3.059-1.863-3.059-1.864 0-2.149 1.454-2.149 2.956v5.708h-3.56V9h3.418v1.561h.048c.476-.898 1.637-1.844 3.369-1.844 3.601 0 4.266 2.369 4.266 5.455v6.28z"></path>
</svg>
